<svg height="64" preserveAspectRatio="none" viewBox="0 0 64 64" width="64" xmlns="http://www.w3.org/2000/svg" xmlns:xlink="http://www.w3.org/1999/xlink"><linearGradient id="a" gradientUnits="userSpaceOnUse" x1="11.279297" x2="54.375" y1="31.220036" y2="31.220036"><stop offset=".455357" stop-color="#f8eb00"/><stop offset="1" stop-color="#a39c00"/></linearGradient><linearGradient id="b" gradientUnits="userSpaceOnUse" x1="27.858721" x2="38.081608" y1="21.575316" y2="-.347734"><stop offset=".2" stop-color="#ffffdb"/><stop offset="1" stop-color="#e4b67f"/></linearGradient><linearGradient id="c" gradientUnits="userSpaceOnUse" x1="11.279297" x2="26.351601" y1="34.260567" y2="34.260567"><stop offset="0" stop-color="#595757"/><stop offset=".620536" stop-color="#231815"/></linearGradient><path clip-rule="evenodd" d="m45.2686005 3.53076-31.1579304 7.10441c-1.6563835.3776789-2.8313732 1.8507395-2.8313732 3.5496397v37.783989c0 8.3437004 9.0000038 6.8339005 9.0000038 6.8339005l34.0956993-11.5838996v-39.9687996z" fill="url(#a)" fill-rule="evenodd"/><path clip-rule="evenodd" d="m54.375 7.25-35.5595493 9.75s-14.7247906-4.0801353-.3728409-7.3525696c14.3519916-3.2724304 26.8259907-6.1166704 26.8259907-6.1166704z" fill="url(#b)" fill-rule="evenodd"/><path clip-rule="evenodd" d="m18.4426098 9.6474304c-9.77594 1.6025696-5.8176098 8.4667587 7.9089908 5.2743798v41.8178902l-6.0723 2.0629997s-9.0000038 1.2598-9.0000038-6.8339005v-37.4907894c0-1.8142929 1.4577951-3.4879799 3.2172127-3.93081 1.6909905-.4256201 2.9721013-.6553698 3.9461003-.8997698z" fill="url(#c)" fill-rule="evenodd"/><path d="m18.9985352 59.3740234c-2.4711914 0-8.2192383-.7216797-8.2192383-7.4052734v-37.4907227c0-2.0014648 1.5454102-3.8994141 3.5952148-4.4155273.75-.1889648 1.4199219-.3393555 2.019043-.4702148.5976563-.1748047 1.2597656-.3222656 1.9677734-.4384766.2685547-.0410156.5166016.1298828.5708008.3920898.0541992.2626953-.1079102.5214844-.3681641.5864258-.4213867.105957-.8994141.2089844-1.4428711.3261719l-.4799805.1035156c-2.0126953.5952148-3.2294922 1.5537109-3.1015625 2.4438477.1611328 1.1191406 2.3530273 2.2524414 6.230957 2.2524414 1.9428711 0 4.1191406-.2773438 6.4677734-.8232422.1499023-.0332031.3051758.0009766.4243164.0952148.1191406.0947266.1889648.2392578.1889648.3916016v41.8173828c0 .2138672-.1362305.4042969-.3393555.4736328l-6.0722656 2.0634766c-.113281.0244141-.6425779.0976562-1.441406.0976562zm-6.390625-47.0502929c-.5141602.621582-.8286133 1.3857422-.8286133 2.1542969v37.4907226c0 5.5732422 4.5229492 6.4052734 7.2192383 6.4052734.7241211 0 1.2070313-.0654297 1.2119141-.0664063l5.6411133-1.9257813v-40.8354491c-2.1904297.472168-4.2333984.7119141-6.0810547.7119141-4.1142578 0-6.9487305-1.2207031-7.2207031-3.1098633-.0405275-.2807617-.0200196-.5566406.0581054-.824707z" fill="#231815"/><path d="m21.4995117 16.75c-.2197266 0-.4208984-.1459961-.4819336-.3681641-.0727539-.2661133.0839844-.5410156.3505859-.6142578l32.875-9c.2685547-.0722656.5419922.0849609.6142578.3505859.0722656.2661133-.0839844.5410156-.3505859.6142578l-32.875 9c-.0439453.0117188-.0883789.0175782-.1323242.0175782z" fill="#231815"/><path clip-rule="evenodd" d="m42.205101 37.5042992c-2.4083023-.4715996-3.3568001-2.6801987-3.7854004-5.4736977-.4284019-2.7945023-.2252007-5.4653015 1.7658997-7.710701l-.7033997-4.5915203c-4.0778999 2.7196198-6.3697014 5.568819-5.0905991 13.9247189 1.3314972 8.6917992 4.1287003 9.1362991 8.5155983 8.4435997z" fill="#231815" fill-rule="evenodd"/><path d="m44.7671013 21.9132195c.1375999.8834801-.343502 1.3137798-.343502 1.3137798l-3.0845985.6542015s-.5488014-.0130005-.6837006-.8990002l-.4771004-3.1184216c-.1362991-.88447.3931007-.9959183.3931007-.9959183l2.9539986-1.5057201s.4978027-.3033905.6352997.5806198z" fill="#231815"/><path d="m47.5293007 39.9561005c.1375999.8834991-.3426018 1.3111992-.3426018 1.3111992l-3.0836983.6543007s-.5499992-.0125008-.6851006-.8978996l-.4776993-3.1165009c-.1354027-.8875999.3955002-.9972992.3955002-.9972992l2.9514008-1.5064011s.5009995-.3042984.6352997.5800018z" fill="#231815"/><g fill="#898307"><path d="m33.835415-6.390795h.199776v27.24155h-.199776z" transform="matrix(.2101968 .9776591 -.9776591 .2101968 33.870667 -27.466896)"/><path d="m36.425434-4.638472h.199916v26.153408h-.199916z" transform="matrix(.2540124 .9672009 -.9672009 .2540124 35.408955 -29.032576)"/><path d="m40.554459-1.781587h.200167v19.726259h-.200167z" transform="matrix(.2585734 .9659916 -.9659916 .2585734 37.949059 -33.280075)"/><path d="m43.984669.494436h.199611v15.770894h-.199611z" transform="matrix(.2837552 .9588968 -.9588968 .2837552 39.610718 -36.270409)"/><path d="m40.353298-1.295606h.200141v15.708887h-.200141z" transform="matrix(.2390898 .9709975 -.9709975 .2390898 37.149998 -34.289433)"/><path d="m49.303806 4.087659h.200005v6.821752h-.200005z" transform="matrix(.2734311 .9618916 -.9618916 .2734311 43.108048 -42.072907)"/></g><path d="m18.7104492 59.4091797c-2.3847656 0-7.9311523-.7246094-7.9311523-7.4404297v-37.7841797c0-1.9448242 1.3242188-3.6049805 3.2207031-4.0366211l31.1572266-7.1044922c.1005859-.0239258.2050781-.0141602.3007813.0244141l9.1064453 3.7192383c.1874999.0766601.3105468.2597656.3105468.4628906v39.96875c0 .2138672-.1367188.4042969-.3388672.4736328l-34.0961914 11.5839844c-.1054687.0244141-.765625.1328125-1.7294922.1328125zm26.5151367-55.355957-31.003418 7.0693359c-1.4384766.3276367-2.4428711 1.5869141-2.4428711 3.0620117v37.7841797c0 5.6035156 4.3427734 6.4404297 6.9311523 6.4404297.8745117 0 1.4804688-.0986328 1.4863281-.0996094l33.6782228-11.4492187v-39.2744141z" fill="#231815"/></svg>